<?xml version="1.0" standalone="no"?>
<!DOCTYPE svg PUBLIC "-//W3C//DTD SVG 20010904//EN"
 "http://www.w3.org/TR/2001/REC-SVG-20010904/DTD/svg10.dtd">
<svg version="1.0" xmlns="http://www.w3.org/2000/svg"
 width="256.000000pt" height="256.000000pt" viewBox="0 0 256.000000 256.000000"
 preserveAspectRatio="xMidYMid meet">
<metadata>
Created by potrace 1.11, written by Peter Selinger 2001-2013
</metadata>
<g transform="translate(0.000000,256.000000) scale(0.100000,-0.100000)"
fill="#000000" stroke="none">
<path d="M715 2128 c-55 -133 -230 -541 -246 -575 -10 -24 -19 -45 -19 -48 0
-3 -16 -43 -36 -88 -20 -45 -40 -91 -45 -102 -19 -46 -51 -121 -59 -140 -19
-42 -49 -114 -100 -235 -28 -69 -60 -143 -70 -165 -10 -22 -25 -57 -33 -78
l-16 -37 740 0 739 0 114 -69 c174 -104 346 -169 492 -185 l61 -6 96 94 c97
94 112 114 80 101 -56 -22 -126 -24 -208 -8 -69 14 -212 60 -284 91 l-36 15
35 9 c51 13 190 69 190 77 0 3 13 12 29 19 48 21 167 138 215 210 43 66 86
159 101 217 4 17 9 39 12 50 9 39 10 214 1 270 -4 31 -15 75 -24 98 -8 23 -17
50 -19 59 -2 9 -16 38 -30 65 -102 183 -281 317 -494 368 -100 24 -288 25
-391 2 -69 -15 -92 -23 -140 -45 -30 -14 -62 -26 -70 -28 -8 -2 -16 -8 -18
-13 -2 -6 -8 -11 -14 -11 -14 0 -91 -62 -146 -118 -24 -24 -45 -42 -47 -40 -4
5 -85 179 -85 184 0 2 -9 24 -21 49 l-21 45 -110 0 -109 0 -14 -32z m1056
-174 c39 -2 75 -6 80 -10 5 -3 19 -7 31 -9 55 -11 172 -81 229 -139 57 -57
123 -167 134 -226 15 -73 18 -101 17 -160 0 -57 -3 -82 -17 -150 -2 -8 -4 -16
-5 -17 -2 -2 -3 -6 -4 -10 0 -5 -15 -35 -31 -68 -34 -67 -152 -193 -202 -216
-18 -7 -33 -18 -33 -22 0 -5 -4 -6 -9 -2 -5 3 -12 1 -15 -4 -7 -11 -91 -36
-151 -46 -43 -7 -154 -7 -195 0 -78 13 -94 18 -96 33 0 4 -17 42 -37 85 -20
43 -37 80 -37 82 0 3 -14 35 -31 72 -17 38 -58 129 -91 203 -32 74 -67 151
-76 170 -9 19 -17 37 -18 40 0 3 -8 21 -16 40 -9 19 -15 37 -14 40 25 61 45
89 122 166 86 87 187 133 328 150 22 3 42 7 45 9 2 3 8 2 13 -1 5 -3 41 -8 79
-10z m-897 -354 c16 -36 34 -78 41 -95 8 -17 15 -83 18 -150 3 -96 9 -133 29
-187 29 -77 80 -166 120 -209 14 -16 23 -31 20 -33 -4 -2 -53 -3 -110 -2 -56
0 -102 -3 -102 -7 0 -5 -5 -5 -12 -1 -16 10 -228 11 -228 1 0 -4 -8 -4 -17 0
-10 5 -39 8 -64 7 l-46 -1 43 104 c23 56 40 103 36 103 -4 0 -2 4 3 8 6 4 30
57 54 117 25 61 54 130 65 155 11 25 21 50 22 55 1 6 10 31 21 55 11 25 30 71
43 103 12 32 26 55 30 50 3 -4 19 -37 34 -73z"/>
</g>
</svg>
